<?xml version="1.0" standalone="no"?><svg xmlns="http://www.w3.org/2000/svg" viewBox="0 0 1440 320"><path fill="#e7008a" fill-opacity="1" d="M0,32L30,32C60,32,120,32,180,69.3C240,107,300,181,360,213.3C420,245,480,235,540,197.3C600,160,660,96,720,101.3C780,107,840,181,900,213.3C960,245,1020,235,1080,224C1140,213,1200,203,1260,165.3C1320,128,1380,64,1410,32L1440,0L1440,0L1410,0C1380,0,1320,0,1260,0C1200,0,1140,0,1080,0C1020,0,960,0,900,0C840,0,780,0,720,0C660,0,600,0,540,0C480,0,420,0,360,0C300,0,240,0,180,0C120,0,60,0,30,0L0,0Z"></path></svg>